<mxfile host="app.diagrams.net" modified="2022-11-18T10:04:04.589Z" agent="5.0 (Windows)" etag="c5BJa-7lzec-rWl2M8ma" version="20.5.3" type="github">
  <diagram id="YQh7RbZ038hir62gG8_0" name="Страница 1">
    <mxGraphModel dx="1221" dy="621" grid="1" gridSize="10" guides="1" tooltips="1" connect="1" arrows="1" fold="1" page="1" pageScale="1" pageWidth="827" pageHeight="1169" math="0" shadow="0">
      <root>
        <mxCell id="0" />
        <mxCell id="1" parent="0" />
        <mxCell id="vfy6mk82esExI1-zzVCX-59" style="edgeStyle=orthogonalEdgeStyle;rounded=0;orthogonalLoop=1;jettySize=auto;html=1;" edge="1" parent="1" source="vfy6mk82esExI1-zzVCX-32" target="vfy6mk82esExI1-zzVCX-36">
          <mxGeometry relative="1" as="geometry" />
        </mxCell>
        <mxCell id="vfy6mk82esExI1-zzVCX-32" value="Product" style="swimlane;childLayout=stackLayout;horizontal=1;startSize=30;horizontalStack=0;rounded=1;fontSize=14;fontStyle=0;strokeWidth=2;resizeParent=0;resizeLast=1;shadow=0;dashed=0;align=center;" vertex="1" parent="1">
          <mxGeometry x="220" y="360" width="160" height="144" as="geometry">
            <mxRectangle x="210" y="410" width="90" height="30" as="alternateBounds" />
          </mxGeometry>
        </mxCell>
        <mxCell id="vfy6mk82esExI1-zzVCX-34" style="edgeStyle=orthogonalEdgeStyle;rounded=0;orthogonalLoop=1;jettySize=auto;html=1;exitX=0.5;exitY=1;exitDx=0;exitDy=0;entryX=0.5;entryY=1;entryDx=0;entryDy=0;" edge="1" parent="vfy6mk82esExI1-zzVCX-32" source="vfy6mk82esExI1-zzVCX-33" target="vfy6mk82esExI1-zzVCX-32">
          <mxGeometry relative="1" as="geometry" />
        </mxCell>
        <mxCell id="vfy6mk82esExI1-zzVCX-33" value="product_name&#xa;product_manufacturer&#xa;prduct_brand&#xa;product_expiration_date&#xa;product_price&#xa;product_weight&#xa;product_img&#xa;&#xa;&#xa;&#xa;" style="align=left;strokeColor=none;fillColor=none;spacingLeft=4;fontSize=12;verticalAlign=top;resizable=0;rotatable=0;part=1;" vertex="1" parent="vfy6mk82esExI1-zzVCX-32">
          <mxGeometry y="30" width="160" height="114" as="geometry" />
        </mxCell>
        <mxCell id="vfy6mk82esExI1-zzVCX-35" value="Storage" style="swimlane;childLayout=stackLayout;horizontal=1;startSize=30;horizontalStack=0;rounded=1;fontSize=14;fontStyle=0;strokeWidth=2;resizeParent=0;resizeLast=1;shadow=0;dashed=0;align=center;" vertex="1" parent="1">
          <mxGeometry x="490" y="410" width="160" height="120" as="geometry" />
        </mxCell>
        <mxCell id="vfy6mk82esExI1-zzVCX-36" value="product_key&#xa;product_quantity" style="align=left;strokeColor=none;fillColor=none;spacingLeft=4;fontSize=12;verticalAlign=top;resizable=0;rotatable=0;part=1;" vertex="1" parent="vfy6mk82esExI1-zzVCX-35">
          <mxGeometry y="30" width="160" height="90" as="geometry" />
        </mxCell>
        <mxCell id="vfy6mk82esExI1-zzVCX-41" value="Purchase" style="swimlane;childLayout=stackLayout;horizontal=1;startSize=30;horizontalStack=0;rounded=1;fontSize=14;fontStyle=0;strokeWidth=2;resizeParent=0;resizeLast=1;shadow=0;dashed=0;align=center;" vertex="1" parent="1">
          <mxGeometry x="340" y="180" width="160" height="130" as="geometry" />
        </mxCell>
        <mxCell id="vfy6mk82esExI1-zzVCX-42" value="purchase_key&#xa;product_list&#xa;purchase_date&#xa;purchase_sum&#xa;&#xa;" style="align=left;strokeColor=none;fillColor=none;spacingLeft=4;fontSize=12;verticalAlign=top;resizable=0;rotatable=0;part=1;" vertex="1" parent="vfy6mk82esExI1-zzVCX-41">
          <mxGeometry y="30" width="160" height="100" as="geometry" />
        </mxCell>
        <mxCell id="vfy6mk82esExI1-zzVCX-45" value="Buyer" style="swimlane;childLayout=stackLayout;horizontal=1;startSize=30;horizontalStack=0;rounded=1;fontSize=14;fontStyle=0;strokeWidth=2;resizeParent=0;resizeLast=1;shadow=0;dashed=0;align=center;" vertex="1" parent="1">
          <mxGeometry x="290" y="90" width="160" height="60" as="geometry" />
        </mxCell>
        <mxCell id="vfy6mk82esExI1-zzVCX-46" value="discount_card" style="align=left;strokeColor=none;fillColor=none;spacingLeft=4;fontSize=12;verticalAlign=top;resizable=0;rotatable=0;part=1;" vertex="1" parent="vfy6mk82esExI1-zzVCX-45">
          <mxGeometry y="30" width="160" height="30" as="geometry" />
        </mxCell>
        <mxCell id="vfy6mk82esExI1-zzVCX-56" value="Purschase list" style="swimlane;childLayout=stackLayout;horizontal=1;startSize=30;horizontalStack=0;rounded=1;fontSize=14;fontStyle=0;strokeWidth=2;resizeParent=0;resizeLast=1;shadow=0;dashed=0;align=center;" vertex="1" parent="1">
          <mxGeometry x="100" y="210" width="160" height="70" as="geometry" />
        </mxCell>
        <mxCell id="vfy6mk82esExI1-zzVCX-57" value="product_key&#xa;product_weight&#xa;&#xa;&#xa;" style="align=left;strokeColor=none;fillColor=none;spacingLeft=4;fontSize=12;verticalAlign=top;resizable=0;rotatable=0;part=1;" vertex="1" parent="vfy6mk82esExI1-zzVCX-56">
          <mxGeometry y="30" width="160" height="40" as="geometry" />
        </mxCell>
        <mxCell id="vfy6mk82esExI1-zzVCX-60" style="edgeStyle=orthogonalEdgeStyle;rounded=0;orthogonalLoop=1;jettySize=auto;html=1;entryX=0.5;entryY=0;entryDx=0;entryDy=0;" edge="1" parent="1" source="vfy6mk82esExI1-zzVCX-57" target="vfy6mk82esExI1-zzVCX-32">
          <mxGeometry relative="1" as="geometry" />
        </mxCell>
        <mxCell id="vfy6mk82esExI1-zzVCX-61" style="edgeStyle=orthogonalEdgeStyle;rounded=0;orthogonalLoop=1;jettySize=auto;html=1;entryX=1;entryY=0.25;entryDx=0;entryDy=0;" edge="1" parent="1" source="vfy6mk82esExI1-zzVCX-42" target="vfy6mk82esExI1-zzVCX-57">
          <mxGeometry relative="1" as="geometry" />
        </mxCell>
        <mxCell id="vfy6mk82esExI1-zzVCX-62" style="edgeStyle=orthogonalEdgeStyle;rounded=0;orthogonalLoop=1;jettySize=auto;html=1;" edge="1" parent="1" source="vfy6mk82esExI1-zzVCX-46" target="vfy6mk82esExI1-zzVCX-41">
          <mxGeometry relative="1" as="geometry" />
        </mxCell>
      </root>
    </mxGraphModel>
  </diagram>
</mxfile>
